<svg xmlns="http://www.w3.org/2000/svg" xmlns:xlink="http://www.w3.org/1999/xlink" viewBox="0 0 57.34 40.77"><defs><style>.cls-1{fill:none;}.cls-2{fill:#d6aa8b;}.cls-3{fill:#b59885;}.cls-4{fill:#af452f;}.cls-5{clip-path:url(#clip-path);}.cls-6{fill:#b22b28;}</style><clipPath id="clip-path"><path class="cls-1" d="M27.25,3.76a20.08,20.08,0,0,1,7.16,9.11c.82,2.06,2,4.21,3.23,4.6,2.54.77,10.32,1.27,7.08,8s-16.2,18.15-34.5,6.75c0,0-2.64-2,.46-2,0,0-6.21-2.75-8.61-6.91C-4.63,11.59,9.71-8.33,27.25,3.76Z"/></clipPath></defs><title>icon_music</title><g id="图层_2" data-name="图层 2"><g id="图层_1-2" data-name="图层 1"><ellipse class="cls-2" cx="33.55" cy="34.18" rx="23.8" ry="6.6"/><ellipse class="cls-3" cx="33.55" cy="34.18" rx="12.65" ry="4.14"/><path class="cls-4" d="M27.25,3.76a20.08,20.08,0,0,1,7.16,9.11c.82,2.06,2,4.21,3.23,4.6,2.54.77,10.32,1.27,7.08,8s-16.2,18.15-34.5,6.75c0,0-2.64-2,.46-2,0,0-6.21-2.75-8.61-6.91C-4.63,11.59,9.71-8.33,27.25,3.76Z"/><g class="cls-5"><path class="cls-6" d="M0,17a1,1,0,0,1,1,.76c.57,2.55,3.09,10.7,12.18,12.42l6.69,1c.18,0,.18.34,0,.32C15,31.11,2.17,31.49,0,17Z"/></g><circle class="cls-6" cx="21.68" cy="30.51" r="2.44"/></g></g></svg>