<svg xmlns="http://www.w3.org/2000/svg" xmlns:xlink="http://www.w3.org/1999/xlink" viewBox="0 0 68.82 99.65"><defs><style>.cls-1,.cls-8,.cls-9{fill:none;}.cls-2{fill:#ba423f;}.cls-3{fill:#c17144;}.cls-4{fill:#f2cbb1;}.cls-5{fill:#e2bea6;}.cls-6{fill:url(#未命名的渐变_10);}.cls-7{clip-path:url(#clip-path);}.cls-8{stroke:#fff;}.cls-8,.cls-9{stroke-miterlimit:10;}.cls-9{stroke:#996a55;}.cls-10{opacity:0.87;fill:url(#未命名的渐变_10-2);}</style><radialGradient id="未命名的渐变_10" cx="34.89" cy="29.7" r="30.09" gradientUnits="userSpaceOnUse"><stop offset="0" stop-color="#ff5589"/><stop offset="1" stop-color="#ff2a48"/></radialGradient><clipPath id="clip-path"><path class="cls-1" d="M34.89,0a30.48,30.48,0,0,0-9.63,59.4H44.52A30.48,30.48,0,0,0,34.89,0Zm.18,13.2c-8,0-15.51-2.77-15.51-6.18S27.06.84,35.07.84,50.44,3.61,50.44,7,43.07,13.2,35.07,13.2Z"/></clipPath><radialGradient id="未命名的渐变_10-2" cx="34.89" cy="8.42" r="13.45" xlink:href="#未命名的渐变_10"/></defs><title>light_red</title><g id="图层_2" data-name="图层 2"><g id="图层_1-2" data-name="图层 1"><polygon class="cls-2" points="55.34 66.69 19.39 66.69 0 83.52 0 99.65 65.36 99.65 65.36 83.52 55.34 66.69"/><ellipse class="cls-3" cx="35.36" cy="76.9" rx="18.58" ry="4.44"/><ellipse class="cls-4" cx="35.36" cy="75.88" rx="17.79" ry="4.25"/><ellipse class="cls-5" cx="35.36" cy="75.62" rx="2.68" ry="1.28"/><rect class="cls-5" x="33.86" y="53.31" width="2.9" height="23.17" rx="1.45"/><path class="cls-6" d="M34.89,0a30.48,30.48,0,0,0-9.63,59.4H44.52A30.48,30.48,0,0,0,34.89,0Zm.18,13.2c-8,0-15.51-2.77-15.51-6.18S27.06.84,35.07.84,50.44,3.61,50.44,7,43.07,13.2,35.07,13.2Z"/><g class="cls-7"><path class="cls-8" d="M1.26,28c16.81,13.45,49.4,13.35,67.26,0"/><path class="cls-8" d="M4.59,40.84c15.15,12.13,44.5,12,60.59,0"/><path class="cls-8" d="M4.59,15.91c15.15,10.72,44.51,11.42,60.59,0"/></g><line class="cls-9" y1="83.52" x2="65.36" y2="83.52"/><ellipse class="cls-10" cx="34.89" cy="8.42" rx="17.33" ry="7.84"/></g></g></svg>