<svg xmlns="http://www.w3.org/2000/svg" viewBox="0 0 18.67 25.52"><defs><style>.cls-1{fill:#fcb256;}</style></defs><title>m2</title><g id="图层_2" data-name="图层 2"><g id="图层_1-2" data-name="图层 1"><path class="cls-1" d="M17.17,17c1.79-6.6,1.49-15.2,1.48-15.64L18.59,0,4.37,4.29l.16.93c0,.1,1.44,8.3-.3,15a3.19,3.19,0,0,0-.63-.12A3.07,3.07,0,0,0,0,22.41a3.07,3.07,0,0,0,3,3.08,3.05,3.05,0,0,0,3.58-2.35,2.47,2.47,0,0,0-.5-1.73c1.79-6,1-13.09.69-15.63l9.78-2.95a57.36,57.36,0,0,1-1.42,13.61A3,3,0,0,0,12,18.8a3.07,3.07,0,0,0,3,3.09,3.07,3.07,0,0,0,3.59-2.36A2.69,2.69,0,0,0,17.17,17Z"/></g></g></svg>